<?xml version="1.0" encoding="UTF-8" standalone="no"?>
<!-- Created with Inkscape (http://www.inkscape.org/) -->

<svg
   xmlns:dc="http://purl.org/dc/elements/1.1/"
   xmlns:cc="http://creativecommons.org/ns#"
   xmlns:rdf="http://www.w3.org/1999/02/22-rdf-syntax-ns#"
   xmlns:svg="http://www.w3.org/2000/svg"
   xmlns="http://www.w3.org/2000/svg"
   xmlns:sodipodi="http://sodipodi.sourceforge.net/DTD/sodipodi-0.dtd"
   xmlns:inkscape="http://www.inkscape.org/namespaces/inkscape"
   id="svg2"
   version="1.1"
   inkscape:version="0.48.5 r10040"
   width="586.0375"
   height="557.3375"
   xml:space="preserve"
   sodipodi:docname="Logo_ENS_mecatronique_negatif_bleu_fond transparent.svg"><metadata
     id="metadata8"><rdf:RDF><cc:Work
         rdf:about=""><dc:format>image/svg+xml</dc:format><dc:type
           rdf:resource="http://purl.org/dc/dcmitype/StillImage" /><dc:title></dc:title></cc:Work></rdf:RDF></metadata><defs
     id="defs6"><clipPath
       clipPathUnits="userSpaceOnUse"
       id="clipPath18"><path
         d="m 0,0 4688,0 0,4458.74 -4688,0 L 0,0 z"
         id="path20" /></clipPath></defs><sodipodi:namedview
     pagecolor="#ffffff"
     bordercolor="#666666"
     borderopacity="1"
     objecttolerance="10"
     gridtolerance="10"
     guidetolerance="10"
     inkscape:pageopacity="0"
     inkscape:pageshadow="2"
     inkscape:window-width="1680"
     inkscape:window-height="975"
     id="namedview4"
     showgrid="false"
     inkscape:zoom="0.42344179"
     inkscape:cx="-181.6628"
     inkscape:cy="278.66876"
     inkscape:window-x="1591"
     inkscape:window-y="-9"
     inkscape:window-maximized="1"
     inkscape:current-layer="g16" /><g
     id="g10"
     inkscape:groupmode="layer"
     inkscape:label="ink_ext_XXXXXX"
     transform="matrix(1.25,0,0,-1.25,0,557.3375)"><g
       id="g12"
       transform="scale(0.1,0.1)"><g
         id="g14"><g
           id="g16"
           clip-path="url(#clipPath18)"><path
             d="m 0,0 4688.32,0 0,4458.74 L 0,4458.74 0,0 z"
             style="fill:none;fill-opacity:1;fill-rule:nonzero;stroke:none"
             id="path22" /><path
             d="m 3913.66,2590.09 c -119.31,123.23 -287.37,201.58 -472.94,201.5 -4.87,0 -10.18,0 -15.99,-0.2 l 0.67,0.04 c -2.73,-0.08 -5.61,-0.08 -8.61,-0.08 -108.46,0.04 -205.76,45.06 -278.23,119.35 -72.16,74.33 -116.75,176.38 -116.71,287.63 0.4,224.95 182.31,406.46 406.86,406.88 113.12,-0.02 215.16,-45.46 289.97,-119.45 52.64,-52.35 90.75,-117.96 108.68,-191.5 l 265.88,53.87 c -68.97,303.21 -341.38,528.23 -664.53,528.34 -374.27,-0.06 -678.01,-303.23 -678.11,-678.14 0.06,-184.31 73.78,-353.58 193.45,-476.64 119.28,-123.14 287.23,-201.7 472.74,-201.61 4.83,0 9.8,0.04 14.92,0.19 l 1.03,0 c 2.13,0.08 4.82,0.08 7.98,0.08 108.8,-0.08 206.03,-45.06 278.35,-119.19 72.04,-74.29 116.58,-176.26 116.51,-287.84 -0.35,-224.44 -181.83,-406.46 -406.87,-406.86 -112.48,0.23 -209,44.63 -282.25,118.65 -72.87,74 -120.02,177.62 -124.73,293.75 -7.45,183.17 -81.63,350.9 -202.08,473.33 -120.1,122.54 -288.85,199.51 -475.93,199.28 -186.77,0.23 -355.46,-76.74 -475.64,-199.24 -120.58,-122.36 -195.07,-290.12 -202.37,-473.45 -4.66,-116.23 -51.7,-219.83 -124.49,-293.79 -73.22,-73.94 -169.78,-118.3 -282.51,-118.53 -224.75,0.4 -406.483,182.22 -406.862,406.86 0.379,224.81 182.032,406.47 406.862,406.87 l 0,271.28 c -224.87,0.43 -406.483,181.94 -406.862,406.86 0.379,224.79 182.032,406.46 406.862,406.88 191.03,-0.33 350.76,-131.33 394.78,-308.7 l 266.05,53.91 C 1850.48,3651.85 1581,3876.47 1258.71,3876.47 884.059,3876.41 580.625,3572.96 580.586,3198.33 580.605,2976.42 687.066,2779.5 851.715,2655.81 687.066,2532.12 580.605,2335.2 580.586,2113.32 580.668,1738.84 884,1435.21 1258.71,1435.18 c 187,-0.23 355.73,77.02 475.84,199.52 120.49,122.43 194.86,290.17 202.18,473.18 4.67,116.59 51.74,220.09 124.57,293.99 73.18,73.77 169.74,118.09 282.42,118.32 113.16,-0.23 209.53,-44.55 282.56,-118.28 72.68,-73.81 119.67,-177.36 124.42,-294.12 7.49,-182.92 81.9,-350.52 202.36,-472.98 119.9,-122.33 288.19,-199.63 474.79,-199.63 l 0.86,0 c 375.07,0.03 678.1,304 678.18,678.14 -0.08,184.37 -73.6,353.72 -193.23,476.77 z m -487.2,201.38 -1.06,-0.04 c 0.11,0 0.23,0 0.32,0 l 0.74,0.04"
             style="fill:#324ca2;fill-opacity:1;fill-rule:nonzero;stroke:none"
             id="path24" /><path
             d="m 661.379,859.328 0,-274.269 97.051,0 0,274.269 c 0,107.024 87.066,194.092 194.093,194.092 l 0,97.05 c -160.8,0 -291.144,-130.32 -291.144,-291.142"
             style="fill:#324ca2;fill-opacity:1;fill-rule:nonzero;stroke:none"
             id="path26" /><path
             d="m 2165.8,859.328 c -0.34,160.532 -130.53,290.522 -291.14,290.522 -160.54,0 -290.76,-129.98 -291.1,-290.522 l 0,-274.269 97.03,0 0,273.961 c 0.19,106.871 87.17,193.79 194.07,193.79 106.96,0 193.96,-86.919 194.08,-193.79 l 0,-273.961 97.08,0 0,274.269 -0.02,0"
             style="fill:#324ca2;fill-opacity:1;fill-rule:nonzero;stroke:none"
             id="path28" /><path
             d="m 2824.74,859.328 c -0.31,160.532 -130.53,290.522 -291.07,290.522 -160.6,0 -290.78,-129.99 -291.14,-290.522 l -0.02,0 0,-274.269 97.06,0 0,273.961 c 0.18,106.871 87.16,193.79 194.1,193.79 106.91,0 193.87,-86.919 194.03,-193.79 l 0,-273.961 97.04,0 0,274.269"
             style="fill:#324ca2;fill-opacity:1;fill-rule:nonzero;stroke:none"
             id="path30" /><path
             d="m 1230.16,1053.42 c 90.24,0 166.29,-61.908 187.93,-145.51 l -375.86,0 c 21.62,83.602 97.69,145.51 187.93,145.51 z m 291.1,-194.092 c 0,160.822 -130.32,291.142 -291.1,291.142 -160.8,0 -291.14,-130.32 -291.14,-291.142 l 0,-0.637 c 0,-160.761 130.34,-291.101 291.14,-291.101 l 0,97.039 c -90.52,0 -166.77,62.269 -188.11,146.211 l 479.1,0 0.11,48.488"
             style="fill:#324ca2;fill-opacity:1;fill-rule:nonzero;stroke:none"
             id="path32" /><path
             d="m 3178.11,1053.42 c 90.25,0 166.32,-61.908 187.96,-145.51 l -375.85,0 c 21.6,83.602 97.68,145.51 187.89,145.51 z m 291.15,-194.092 c 0,160.822 -130.31,291.142 -291.15,291.142 -160.75,0 -291.08,-130.32 -291.08,-291.142 l 0,-0.637 c 0,-160.761 130.33,-291.101 291.08,-291.101 l 0,97.039 c -90.45,0 -166.68,62.269 -188.08,146.211 l 479.13,0 0.1,48.488"
             style="fill:#324ca2;fill-opacity:1;fill-rule:nonzero;stroke:none"
             id="path34" /><path
             d="m 3531.56,859.328 97.04,0 c 0,107.024 87.04,194.092 194.1,194.092 44.9,0 86.26,-15.37 119.19,-41.09 l 77.26,61.84 c -51.75,47.35 -120.74,76.3 -196.45,76.3 -160.81,0 -291.14,-130.32 -291.14,-291.142"
             style="fill:#324ca2;fill-opacity:1;fill-rule:nonzero;stroke:none"
             id="path36" /><path
             d="m 3871.21,858.691 c 0,-106.98 -87.06,-194.062 -194.09,-194.062 -44.69,0 -86.01,15.281 -118.86,40.832 l -77.29,-61.891 c 51.77,-47.179 120.62,-75.98 196.15,-75.98 160.79,0 291.12,130.34 291.12,291.101 l -97.03,0"
             style="fill:#324ca2;fill-opacity:1;fill-rule:nonzero;stroke:none"
             id="path38" /></g></g></g></g></svg>